<svg width="23" height="23" viewBox="0 0 23 23" fill="none" xmlns="http://www.w3.org/2000/svg">
<circle cx="11.5" cy="11.5" r="11.5" fill="#F6222E"/>
<path d="M12.5629 13.5299H10.4714L10.0343 5H13L12.5629 13.5299ZM10 16.5158C10 16.2422 10.0371 16.0123 10.1114 15.8261C10.1914 15.634 10.3 15.4797 10.4371 15.3633C10.5743 15.2469 10.7343 15.1625 10.9171 15.1101C11.1 15.0578 11.2971 15.0316 11.5086 15.0316C11.7086 15.0316 11.8971 15.0578 12.0743 15.1101C12.2571 15.1625 12.4171 15.2469 12.5543 15.3633C12.6914 15.4797 12.8 15.634 12.88 15.8261C12.96 16.0123 13 16.2422 13 16.5158C13 16.7777 12.96 17.0018 12.88 17.188C12.8 17.3743 12.6914 17.5285 12.5543 17.6508C12.4171 17.773 12.2571 17.8603 12.0743 17.9127C11.8971 17.9709 11.7086 18 11.5086 18C11.2971 18 11.1 17.9709 10.9171 17.9127C10.7343 17.8603 10.5743 17.773 10.4371 17.6508C10.3 17.5285 10.1914 17.3743 10.1114 17.188C10.0371 17.0018 10 16.7777 10 16.5158Z" fill="white"/>
</svg>
