<svg width="17" height="15" viewBox="0 0 17 15" fill="none" xmlns="http://www.w3.org/2000/svg">
<path d="M15.1025 2.13318C14.1215 1.02806 12.8796 0.370285 11.1063 0.172491H10.0576C8.29468 0.438133 6.98487 1.09246 5.99935 2.13318H5.8648C2.59776 2.66101 0.699169 4.49175 0.172485 7.81975V8.86851C0.699169 12.1375 2.59661 14.0345 5.8648 14.5597H6.91357C8.68221 14.2986 9.92418 13.5788 10.9097 12.5978L10.9718 12.5346H11.1029C12.8715 12.4001 14.1181 11.679 15.099 10.636C16.2027 9.49994 16.8135 7.9742 16.7987 6.39034C16.8021 4.49175 16.0822 3.1141 15.1025 2.13318ZM8.48787 13.3177C7.42615 13.731 6.26608 13.8218 5.15298 13.5788C3.11984 13.0567 1.68009 11.679 1.14995 9.71834C0.892362 8.67532 0.892362 7.29766 1.3512 6.32479C1.69398 5.43425 2.28655 4.6616 3.05774 4.09962C3.8566 3.43829 4.8333 3.02817 5.8648 2.9209C7.83239 2.79096 9.27215 3.57293 10.1898 4.49175C11.1075 5.41057 11.8941 6.77673 11.763 8.73972C11.633 11.0327 10.1933 12.5978 8.48787 13.3177ZM12.6818 11.3559C12.3638 11.4945 12.0335 11.6027 11.6951 11.679C12.2927 10.6714 12.6103 9.52249 12.6151 8.35103C12.6151 6.45244 11.8952 5.01614 10.9143 4.03177C9.90965 3.00785 8.5974 2.34102 7.17806 2.13318L7.24476 2.06993C8.05894 1.45256 9.03767 1.09004 10.0576 1.02806C12.024 0.82912 13.4638 1.549 14.3826 2.52992C15.3026 3.44299 16.1501 4.81489 16.0201 6.77673C15.9334 7.77162 15.5766 8.72392 14.9882 9.53091C14.3999 10.3379 13.6024 10.9689 12.6818 11.3559Z" fill="#7096FF"/>
<path d="M6.92968 14.731H5.84181C2.50577 14.1974 0.540483 12.2368 0 8.90072V8.87312V7.7979C0.534733 4.41816 2.44367 2.50807 5.83951 1.96299H5.86596H5.92346C6.94808 0.905021 8.29123 0.264492 10.0323 0H10.0576H11.1259C12.8773 0.195494 14.1813 0.836023 15.2278 2.01359C16.387 3.1762 16.9746 4.64815 16.9746 6.3892C16.9886 8.01694 16.361 9.58473 15.2278 10.7533C14.1112 11.9412 12.7669 12.5794 11.119 12.7082H11.0465L11.035 12.7209C9.91843 13.8318 8.57988 14.4895 6.94233 14.731H6.92968ZM5.88206 14.386H6.89978C8.47638 14.156 9.71259 13.5443 10.7867 12.4748L10.9017 12.3598H11.0971C12.6737 12.2379 13.9065 11.6514 14.9748 10.5199C16.0462 9.41402 16.6398 7.93119 16.6273 6.3915C16.6273 4.74245 16.073 3.35214 14.9783 2.25163L14.9714 2.24473C13.9882 1.13731 12.7554 0.532433 11.0971 0.344989H10.0714C8.38668 0.600281 7.09527 1.22471 6.1247 2.25163L6.07411 2.30568H5.88206C2.66677 2.82891 0.855573 4.6378 0.344989 7.83815V8.85472C0.859023 12.0183 2.72196 13.8778 5.88206 14.386ZM6.36505 13.8858C5.94291 13.8874 5.52198 13.8407 5.11044 13.7467C2.9945 13.2027 1.5306 11.7917 0.986668 9.76319C0.756676 8.84322 0.671579 7.36782 1.19251 6.25465C1.54715 5.3375 2.15836 4.54185 2.95311 3.96277C3.77893 3.28323 4.78625 2.86135 5.84986 2.74956C8.17509 2.59547 9.64474 3.69828 10.3152 4.36986C11.4996 5.56467 12.0493 7.03893 11.9355 8.74892C11.8205 10.866 10.5555 12.6335 8.55458 13.4764C7.85682 13.7488 7.11409 13.8877 6.36505 13.8858ZM6.30295 3.07615C6.1661 3.07615 6.02466 3.07615 5.87976 3.08995C4.88324 3.19526 3.93976 3.59161 3.167 4.22957C2.41912 4.7733 1.84444 5.52171 1.5122 6.3846V6.3961C1.02692 7.43106 1.10856 8.81102 1.32591 9.67694C1.83534 11.5732 3.2107 12.8968 5.19668 13.4109C6.27489 13.646 7.39848 13.558 8.42693 13.1579C10.2991 12.3667 11.4835 10.7108 11.5962 8.72822C11.7032 7.11827 11.1914 5.73832 10.076 4.61365C9.58271 4.11716 8.99427 3.72537 8.34594 3.46177C7.69761 3.19817 7.00273 3.06818 6.30295 3.0796V3.07615ZM11.3628 11.9159L11.5514 11.5893C12.1323 10.6074 12.4411 9.48846 12.4461 8.34758C12.4461 6.24315 11.5491 4.90344 10.7959 4.15137C9.81612 3.15187 8.53549 2.50145 7.15047 2.29993L6.80548 2.24358L7.15047 1.92734C8.07044 1.25806 9.02376 0.906171 10.0541 0.850973C11.8205 0.672729 13.4074 1.22471 14.5137 2.40687C15.7361 3.63273 16.3042 5.10699 16.1926 6.78478C16.1022 7.81133 15.7338 8.79384 15.127 9.62676C14.5202 10.4597 13.6979 11.1115 12.7485 11.5123L12.6852 11.3513L12.7404 11.5157C12.4144 11.6564 12.076 11.7665 11.7296 11.8446L11.3628 11.9159ZM7.60011 2.03659C8.90769 2.30427 10.1054 2.95661 11.0396 3.90988C11.8446 4.71485 12.791 6.12816 12.791 8.35103C12.7888 9.41662 12.5317 10.4662 12.0413 11.4122C12.2287 11.3524 12.4185 11.2765 12.6162 11.1995L12.6887 11.3559L12.6208 11.1972C13.5123 10.8214 14.2845 10.2098 14.8544 9.42817C15.4244 8.64649 15.7705 7.72428 15.8557 6.76063C15.9592 5.18748 15.4256 3.80408 14.2676 2.65182C13.2246 1.54555 11.74 1.03497 10.0748 1.19941C9.18935 1.24931 8.33403 1.53866 7.60011 2.03659Z" fill="#7096FF"/>
<path fill-rule="evenodd" clip-rule="evenodd" d="M5.86481 6.89058C5.86481 6.61919 6.1362 6.3915 6.36275 6.34895C6.86068 6.30525 7.13552 6.75259 7.26892 7.11712C7.58631 7.02743 7.86115 6.84688 8.17509 6.75259C8.04169 6.03156 7.49661 5.62332 6.81813 5.44623V4.8977H6.0948V5.48993C4.6907 5.53363 4.28361 7.34482 5.09894 8.15669C5.63482 8.70177 7.04697 8.73972 7.13667 9.3331C7.31721 10.0576 6.2742 10.3255 5.77626 9.83104C5.63482 9.65049 5.63482 9.4665 5.55202 9.19971C5.18863 9.28596 4.87009 9.4228 4.50555 9.4665C4.68955 10.3255 5.23118 10.8741 6.09365 11.0534V11.7296H6.81928C6.81928 11.4996 6.72843 11.142 6.81928 10.958C8.40278 10.9143 8.76732 8.92257 7.8623 8.15439C7.31721 7.66221 5.86481 7.56906 5.86481 6.89058Z" fill="#7096FF"/>
</svg>
