<svg width="9" height="15" viewBox="0 0 9 15" fill="none" xmlns="http://www.w3.org/2000/svg">
<path d="M4.49933 14.9858C4.27818 14.9868 4.05955 14.9389 3.85907 14.8455C3.65859 14.7522 3.48121 14.6157 3.33961 14.4458L0.203391 10.6345C0.0961119 10.5046 0.0279825 10.3469 0.00695033 10.1798C-0.0140818 10.0126 0.0128505 9.84291 0.0846054 9.69049C0.15636 9.53806 0.269979 9.40918 0.412207 9.31888C0.554435 9.22858 0.719407 9.18059 0.887878 9.1805H1.46166V1.50803C1.46237 1.10853 1.6213 0.725574 1.90366 0.442956C2.18603 0.160339 2.56884 0.00107042 2.96834 0C4.17957 0.000714958 5.341 0.482098 6.1976 1.33844C7.05419 2.19478 7.53592 3.35607 7.53699 4.5673V9.1805H8.11077C8.27936 9.18034 8.44451 9.22814 8.58694 9.31834C8.72937 9.40854 8.84319 9.5374 8.91511 9.68988C8.98703 9.84235 9.01408 10.0121 8.99309 10.1794C8.97211 10.3467 8.90396 10.5045 8.79661 10.6345L5.66039 14.435C5.51957 14.6069 5.34241 14.7454 5.14165 14.8407C4.9409 14.9359 4.72153 14.9855 4.49933 14.9858ZM1.29425 10.2606L4.17261 13.7465C4.21224 13.795 4.26217 13.8342 4.3188 13.861C4.37542 13.8879 4.43732 13.9019 4.5 13.9019C4.56268 13.9019 4.62458 13.8879 4.6812 13.861C4.73783 13.8342 4.78776 13.795 4.82739 13.7465L7.70575 10.2606H6.45693V4.5673C6.45622 3.64241 6.0884 2.75563 5.43428 2.10176C4.78015 1.44789 3.89323 1.08042 2.96834 1.08006C2.85471 1.08006 2.74572 1.12511 2.66524 1.20533C2.58477 1.28555 2.53938 1.3944 2.53902 1.50803V10.2606H1.29425Z" fill="#7096FF"/>
</svg>
