<svg width="16" height="14" viewBox="0 0 16 14" fill="none" xmlns="http://www.w3.org/2000/svg">
<path d="M14.3815 2.44441H13.5716V1.64472C13.5768 1.43131 13.5355 1.21935 13.4505 1.02383C13.3656 0.828299 13.2392 0.653968 13.0801 0.513148C12.957 0.421299 12.816 0.356922 12.6663 0.324292C12.5166 0.291661 12.3618 0.291523 12.2121 0.323886L1.55906 2.44441C1.21738 2.45759 0.89323 2.60042 0.651449 2.84433C0.409668 3.08823 0.268083 3.41523 0.255015 3.75991V12.374C0.258077 12.5506 0.295923 12.7249 0.366352 12.8866C0.436781 13.0484 0.538389 13.1944 0.665264 13.3162C0.79214 13.438 0.941753 13.5331 1.1054 13.5961C1.26905 13.659 1.44347 13.6885 1.61852 13.6828H14.3815C14.5565 13.6883 14.7307 13.6587 14.8942 13.5957C15.0577 13.5327 15.2072 13.4375 15.3339 13.3157C15.4607 13.194 15.5621 13.048 15.6325 12.8863C15.7028 12.7247 15.7406 12.5505 15.7437 12.374V3.75991C15.7437 3.07217 15.1214 2.44441 14.3815 2.44441ZM12.3389 0.822363C12.5212 0.762386 12.6494 0.886339 12.7723 0.955646C12.9584 1.13446 13.0687 1.37901 13.0801 1.63805V2.43775H4.28342L12.3389 0.822363ZM14.3815 13.1803H1.61852C1.40829 13.1767 1.2075 13.0916 1.05772 12.9427C0.907945 12.7939 0.820643 12.5926 0.813892 12.3806V3.75991C0.817582 3.5453 0.903377 3.34044 1.05334 3.18817C1.2033 3.0359 1.40581 2.94802 1.61852 2.94289H14.3815C14.5944 2.94736 14.7973 3.03504 14.9474 3.18745C15.0975 3.33986 15.1831 3.54509 15.1862 3.75991V5.13405H9.05039C8.98643 5.13845 8.92623 5.16616 8.88102 5.21202C8.83581 5.25787 8.80867 5.31875 8.80465 5.38329V10.7506C8.80867 10.8151 8.83581 10.876 8.88102 10.9219C8.92623 10.9677 8.98643 10.9954 9.05039 10.9998H15.1862V12.374C15.18 12.5862 15.0929 12.7878 14.943 12.9368C14.7931 13.0858 14.592 13.1707 14.3815 13.1737V13.1803ZM15.1862 5.6312V10.5013H9.30275V5.6312H15.1862ZM14.3815 13.8627H1.61852C1.2277 13.8576 0.854155 13.6995 0.576798 13.4217C0.299441 13.1439 0.139994 12.7682 0.132141 12.374V3.75991C0.132141 2.94289 0.749152 2.32579 1.55906 2.25648L12.1553 0.134625H12.4023C12.6919 0.121191 12.9769 0.211349 13.207 0.389195C13.5394 0.721787 13.7385 1.16652 13.7658 1.63805V2.25648H14.3868C14.7791 2.2634 15.1532 2.4243 15.4298 2.70502C15.7063 2.98574 15.8635 3.36417 15.8679 3.75991V12.374C15.86 12.7682 15.7006 13.1439 15.4232 13.4217C15.1459 13.6995 14.7723 13.8576 14.3815 13.8627ZM12.3971 0.449172H12.2108L1.61852 2.58169H1.55906C1.26093 2.60252 0.98124 2.73485 0.774743 2.95278C0.568246 3.1707 0.449813 3.45853 0.442628 3.75991V12.374C0.442628 12.5297 0.473053 12.6839 0.532163 12.8277C0.591273 12.9716 0.677909 13.1022 0.787118 13.2123C0.896327 13.3223 1.02597 13.4096 1.16862 13.469C1.31128 13.5285 1.46416 13.559 1.61852 13.5588H14.3815C14.6899 13.5488 14.9829 13.4208 15.2011 13.2007C15.4193 12.9806 15.5462 12.685 15.5561 12.374V3.75991C15.5471 3.44852 15.4205 3.15237 15.2021 2.9321C14.9838 2.71182 14.6902 2.58408 14.3815 2.57503H13.4567V1.64205C13.4523 1.44785 13.4053 1.25704 13.3192 1.0833C13.2331 0.909551 13.1099 0.757179 12.9586 0.6371C12.8035 0.504054 12.6027 0.437976 12.3997 0.45317L12.3971 0.449172ZM14.3789 13.3096H1.61852C1.49657 13.3114 1.37551 13.2885 1.26249 13.2422C1.14948 13.196 1.04682 13.1273 0.960578 13.0403C0.87434 12.9534 0.806282 12.8498 0.760434 12.7358C0.714586 12.6218 0.69188 12.4996 0.693661 12.3766V3.75991C0.691328 3.63674 0.713656 3.51437 0.759308 3.40011C0.80496 3.28585 0.872998 3.18206 0.959348 3.09495C1.0457 3.00785 1.14858 2.93921 1.26185 2.89316C1.37511 2.8471 1.49642 2.82458 1.61852 2.82693H14.3815C14.8757 2.82693 15.3738 3.2601 15.3738 3.75991V5.25401H9.05039C9.01698 5.25637 8.9857 5.27145 8.96289 5.2962C8.94008 5.32094 8.92744 5.3535 8.92752 5.38729V10.7506C8.92968 10.7827 8.94332 10.813 8.96591 10.8358C8.98851 10.8586 9.01852 10.8724 9.05039 10.8745H15.3738V12.374C15.3738 12.8711 14.8757 13.3069 14.3815 13.3069L14.3789 13.3096ZM1.61852 3.13215C1.4472 3.13025 1.28155 3.19399 1.15501 3.3105C1.02847 3.42702 0.950475 3.58763 0.936766 3.75991V12.374C0.936766 12.6818 1.24725 12.9964 1.61852 12.9964H14.3815C14.5454 12.9957 14.7025 12.9301 14.8189 12.8136C14.9353 12.6972 15.0017 12.5393 15.0038 12.374V11.1891H9.05039C8.9933 11.19 8.93662 11.1793 8.88376 11.1575C8.8309 11.1357 8.78296 11.1033 8.74284 11.0624C8.70271 11.0214 8.67123 10.9726 8.65029 10.9191C8.62935 10.8655 8.61938 10.8082 8.621 10.7506V5.38329C8.61938 5.32572 8.62935 5.26841 8.65029 5.21482C8.67123 5.16124 8.70271 5.11249 8.74284 5.07151C8.78296 5.03053 8.8309 4.99818 8.88376 4.9764C8.93662 4.95462 8.9933 4.94387 9.05039 4.94479H15.0038V3.75991C15.0038 3.67747 14.9877 3.59584 14.9565 3.51968C14.9252 3.44351 14.8793 3.37431 14.8216 3.31602C14.7638 3.25772 14.6952 3.21148 14.6197 3.17994C14.5442 3.14839 14.4632 3.13215 14.3815 3.13215H1.61852ZM15.3738 10.6213H9.17987V5.50191H15.3738V10.6213ZM9.48508 10.3121H15.0038V5.82179H9.48508V10.3121ZM13.2017 2.58169H4.28342V2.25648L12.2742 0.702409C12.3389 0.633102 12.3389 0.633102 12.3971 0.633102C12.4788 0.630996 12.56 0.64683 12.635 0.679509C12.7101 0.712188 12.7772 0.760931 12.8317 0.822363C12.9516 0.920339 13.0473 1.04495 13.1115 1.18645C13.1757 1.32796 13.2065 1.48252 13.2017 1.63805V2.58169ZM5.82793 2.25648H12.8912V1.63805C12.8758 1.42604 12.7907 1.22528 12.6494 1.0676C12.6178 1.03122 12.5791 1.00188 12.5356 0.98146C12.4922 0.961036 12.445 0.949974 12.3971 0.948982H12.3389L5.82793 2.25648ZM12.1553 9.37644C12.3296 9.38204 12.5032 9.35225 12.6659 9.28883C12.8285 9.22541 12.9769 9.12966 13.1022 9.00726C13.2274 8.88486 13.327 8.73831 13.3951 8.57632C13.4631 8.41433 13.4981 8.2402 13.4981 8.06427C13.4981 7.88835 13.4631 7.71422 13.3951 7.55223C13.327 7.39024 13.2274 7.24369 13.1022 7.12129C12.9769 6.99889 12.8285 6.90313 12.6659 6.83971C12.5032 6.77629 12.3296 6.7465 12.1553 6.75211C11.9784 6.74225 11.8014 6.76889 11.6351 6.83038C11.4688 6.89187 11.3167 6.98693 11.188 7.10974C11.0594 7.23255 10.9569 7.38055 10.8869 7.54467C10.8168 7.70879 10.7807 7.88559 10.7807 8.06427C10.7807 8.24295 10.8168 8.41976 10.8869 8.58388C10.9569 8.748 11.0594 8.89599 11.188 9.0188C11.3167 9.14162 11.4688 9.23668 11.6351 9.29817C11.8014 9.35966 11.9784 9.38629 12.1553 9.37644ZM12.1553 7.25458C12.257 7.25711 12.3571 7.28018 12.4498 7.32242C12.5425 7.36467 12.6259 7.42523 12.695 7.50052C12.7641 7.57582 12.8175 7.66433 12.8521 7.76081C12.8867 7.8573 12.9018 7.95981 12.8965 8.06227C12.8965 8.49944 12.5899 8.87796 12.1553 8.87796C11.9419 8.87796 11.7372 8.79245 11.5863 8.64022C11.4354 8.488 11.3506 8.28155 11.3506 8.06627C11.3506 7.851 11.4354 7.64454 11.5863 7.49232C11.7372 7.3401 11.9419 7.25458 12.1553 7.25458ZM12.1553 9.56037C11.9568 9.56635 11.7591 9.53207 11.574 9.45957C11.3889 9.38708 11.2201 9.27783 11.0776 9.13832C10.9351 8.9988 10.8218 8.83185 10.7445 8.64736C10.6671 8.46287 10.6273 8.26459 10.6273 8.06427C10.6273 7.86396 10.6671 7.66568 10.7445 7.48119C10.8218 7.29669 10.9351 7.12974 11.0776 6.99023C11.2201 6.85071 11.3889 6.74147 11.574 6.66897C11.7591 6.59647 11.9568 6.5622 12.1553 6.56818C12.5353 6.588 12.8934 6.75428 13.1554 7.03268C13.4175 7.31107 13.5636 7.68035 13.5636 8.06427C13.5636 8.4482 13.4175 8.81747 13.1554 9.09587C12.8934 9.37427 12.5353 9.54054 12.1553 9.56037ZM12.1553 6.87606C11.8504 6.88637 11.5614 7.01579 11.3494 7.237C11.1373 7.45821 11.0188 7.75389 11.0188 8.06161C11.0188 8.36933 11.1373 8.665 11.3494 8.88621C11.5614 9.10742 11.8504 9.23684 12.1553 9.24716C12.4645 9.23817 12.7586 9.11061 12.9778 8.89046C13.1971 8.67031 13.3248 8.37414 13.3351 8.06227C13.3245 7.75038 13.1967 7.45424 12.9776 7.23394C12.7585 7.01364 12.4645 6.88569 12.1553 6.87606ZM12.1553 8.99792C11.91 8.99792 11.6747 8.89962 11.5013 8.72465C11.3279 8.54969 11.2304 8.31238 11.2304 8.06494C11.2304 7.8175 11.3279 7.58019 11.5013 7.40522C11.6747 7.23026 11.91 7.13196 12.1553 7.13196C12.4006 7.13196 12.6358 7.23026 12.8092 7.40522C12.9827 7.58019 13.0801 7.8175 13.0801 8.06494C13.0801 8.31238 12.9827 8.54969 12.8092 8.72465C12.6358 8.89962 12.4006 8.99792 12.1553 8.99792ZM12.1553 7.43851C11.7866 7.43851 11.4748 7.69308 11.4748 8.06227C11.4748 8.43147 11.7866 8.6887 12.1553 8.6887C12.3196 8.6887 12.4772 8.62284 12.5934 8.50562C12.7096 8.38839 12.7749 8.22939 12.7749 8.06361C12.7749 7.89782 12.7096 7.73882 12.5934 7.6216C12.4772 7.50437 12.3196 7.43851 12.1553 7.43851Z" fill="#7096FF"/>
<path d="M14.3815 13.996H1.6185C1.19264 13.9909 0.785504 13.8187 0.483373 13.5159C0.181243 13.2131 0.00786918 12.8035 0 12.374L0 3.75991C0 2.89091 0.647399 2.2045 1.53922 2.12453L12.1381 0.00134191H12.4023C12.721 -0.0129063 13.0345 0.0866758 13.2875 0.282568L13.3007 0.294564C13.6572 0.65277 13.8699 1.13125 13.8979 1.63805V2.1232H14.3868C14.8139 2.1308 15.2212 2.30596 15.5224 2.61153C15.8236 2.9171 15.9949 3.32903 16 3.75991V12.374C15.9921 12.8035 15.8188 13.2131 15.5166 13.5159C15.2145 13.8187 14.8074 13.9909 14.3815 13.996ZM1.6185 3.26543C1.48205 3.26311 1.34974 3.31269 1.24789 3.40432C1.14604 3.49595 1.08213 3.6229 1.06887 3.75991V12.374C1.08423 12.5097 1.14893 12.6348 1.25046 12.7251C1.35198 12.8155 1.48312 12.8647 1.6185 12.8631H14.3815C14.5103 12.8621 14.6336 12.8104 14.7251 12.719C14.8167 12.6277 14.8693 12.5039 14.8717 12.374V11.3224H9.05037C8.97583 11.3237 8.90181 11.3097 8.83276 11.2814C8.76371 11.253 8.70106 11.2108 8.64859 11.1574C8.59612 11.104 8.55492 11.0404 8.52747 10.9705C8.50002 10.9006 8.48688 10.8258 8.48885 10.7506V5.38329C8.48688 5.30811 8.50002 5.23331 8.52747 5.16339C8.55492 5.09347 8.59612 5.02988 8.64859 4.97646C8.70106 4.92303 8.76371 4.88087 8.83276 4.85252C8.90181 4.82418 8.97583 4.81022 9.05037 4.81151H14.8717V3.75991C14.8713 3.62888 14.8196 3.50331 14.7277 3.41065C14.6359 3.31799 14.5114 3.26578 14.3815 3.26543H1.6185ZM9.61718 10.1788H14.8717V5.95507H9.61718V10.1788ZM1.71759 2.69098H4.15128V2.20184L1.71759 2.69098ZM5.61784 2.31113H5.81866L5.81338 2.26715L5.61784 2.31113ZM7.17027 2.1232H12.759V1.63805C12.7427 1.46139 12.6699 1.29486 12.5516 1.16357C12.5328 1.13959 12.5089 1.12012 12.4817 1.10652C12.4545 1.09293 12.4247 1.08556 12.3944 1.08493H12.3481L7.17027 2.1232ZM12.1552 9.69365C11.8334 9.70614 11.5151 9.62129 11.2414 9.45C10.9676 9.2787 10.7509 9.02879 10.619 8.73233C10.4871 8.43587 10.446 8.10641 10.5011 7.78624C10.5561 7.46606 10.7048 7.1698 10.9279 6.93547C11.1511 6.70115 11.4386 6.53946 11.7536 6.47117C12.0685 6.40287 12.3965 6.4311 12.6954 6.55221C12.9943 6.67332 13.2505 6.88179 13.4311 7.15086C13.6117 7.41993 13.7085 7.73732 13.709 8.06227C13.7137 8.48537 13.5535 8.89341 13.2629 9.19853C12.9723 9.50365 12.5745 9.68145 12.1552 9.69365ZM12.1552 7.57179C12.087 7.56636 12.0184 7.57486 11.9536 7.59678C11.8887 7.61871 11.8289 7.65361 11.7777 7.6994C11.7265 7.74519 11.685 7.80093 11.6557 7.86328C11.6263 7.92563 11.6097 7.99331 11.6069 8.06227C11.6069 8.38615 11.8831 8.55542 12.1552 8.55542C12.2845 8.55542 12.4086 8.5036 12.5 8.41137C12.5914 8.31914 12.6428 8.19404 12.6428 8.0636C12.6428 7.93317 12.5914 7.80807 12.5 7.71584C12.4086 7.62361 12.2845 7.57179 12.1552 7.57179Z" fill="#7096FF"/>
</svg>
