<svg width="16" height="16" viewBox="0 0 16 16" fill="none" xmlns="http://www.w3.org/2000/svg">
<path fill-rule="evenodd" clip-rule="evenodd" d="M15.9327 0.395599C15.8675 0.0802085 15.5521 -0.0462195 15.2408 0.0149553L12.2799 1.14737C12.1908 1.1752 12.1099 1.22445 12.0442 1.29081C11.9786 1.35717 11.9302 1.43862 11.9033 1.52801L9.76765 8.50058H2.65506C2.40492 7.74881 1.14608 3.22187 1.14608 3.22187C1.02101 2.91192 0.705622 2.71888 0.455485 2.84123C0.305027 2.87471 0.173999 2.96651 0.0911644 3.0965C0.00832969 3.22649 -0.0195422 3.38403 0.0136673 3.53455L1.65315 9.1871C1.68639 9.31219 1.75967 9.42297 1.86179 9.50251C1.96391 9.58204 2.08925 9.62596 2.21868 9.62756H9.39245C9.2565 10.1346 9.0757 10.8266 8.94655 11.2018H2.14935C2.07516 11.2011 2.00157 11.2151 1.93282 11.243C1.86407 11.2708 1.80154 11.3121 1.74882 11.3643C1.69611 11.4165 1.65427 11.4786 1.62571 11.5471C1.59716 11.6156 1.58246 11.689 1.58246 11.7632C1.58246 12.0841 1.8326 12.2689 2.14935 12.2689H9.39245C9.51258 12.2694 9.6301 12.2339 9.72991 12.1671C9.82972 12.1002 9.90725 12.005 9.95253 11.8937L10.7097 9.1871C10.8362 8.87579 12.7802 2.59109 12.9161 2.15471C13.3525 1.96983 15.6173 1.08755 15.6173 1.08755C15.7303 1.06336 15.8309 0.999425 15.9007 0.907372C15.9706 0.815318 16.0051 0.701256 15.998 0.58592C16.0027 0.551307 15.9992 0.516075 15.9879 0.483033C15.9765 0.449991 15.9577 0.420051 15.9327 0.395599ZM2.46474 12.7053C2.13168 12.7082 1.81324 12.8425 1.57874 13.0791C1.34424 13.3156 1.21268 13.6352 1.21269 13.9682C1.22348 14.2974 1.35869 14.6102 1.59105 14.8436C1.82342 15.077 2.13564 15.2135 2.46474 15.2257C2.79445 15.2144 3.10771 15.079 3.34187 14.8466C3.57602 14.6142 3.71381 14.3019 3.72766 13.9723C3.72552 13.638 3.59178 13.3181 3.35539 13.0817C3.11901 12.8453 2.79903 12.7115 2.46474 12.7094V12.7053ZM9.26194 12.7053C8.92803 12.7075 8.60847 12.8414 8.37274 13.0778C8.13701 13.3143 8.00417 13.6343 8.0031 13.9682C8.01494 14.2982 8.1514 14.6114 8.385 14.8448C8.6186 15.0781 8.93196 15.2143 9.26194 15.2257C9.591 15.214 9.90346 15.0783 10.1367 14.8458C10.3699 14.6134 10.5066 14.3014 10.5194 13.9723C10.5184 13.6386 10.3857 13.3189 10.1503 13.0824C9.91483 12.8459 9.59561 12.7119 9.26194 12.7094V12.7053Z" fill="#7096FF"/>
<path fill-rule="evenodd" clip-rule="evenodd" d="M5.98295 2.69713C5.98413 2.77298 6.01261 2.84586 6.06316 2.90241C6.12949 2.973 6.2128 3.02542 6.30514 3.05467V2.33688C6.21514 2.35823 6.13337 2.40549 6.06996 2.47283C6.01283 2.5334 5.98161 2.61388 5.98295 2.69713Z" fill="#7096FF"/>
<path fill-rule="evenodd" clip-rule="evenodd" d="M6.66949 3.73438V4.55005C6.78418 4.53574 6.89131 4.48527 6.97537 4.40595C7.01259 4.37117 7.0422 4.32906 7.06233 4.28226C7.08245 4.23546 7.09265 4.185 7.09228 4.13406C7.09289 4.08965 7.08453 4.04557 7.06772 4.00446C7.0509 3.96335 7.02596 3.92605 6.9944 3.8948C6.90261 3.81291 6.79032 3.75747 6.66949 3.73438Z" fill="#7096FF"/>
<path fill-rule="evenodd" clip-rule="evenodd" d="M6.48188 0.407835C5.86347 0.407835 5.25895 0.591213 4.74477 0.934781C4.23058 1.27835 3.82983 1.76667 3.59317 2.33801C3.35652 2.90934 3.2946 3.53802 3.41524 4.14454C3.53589 4.75106 3.83368 5.30819 4.27096 5.74547C4.70824 6.18275 5.26536 6.48054 5.87189 6.60118C6.47841 6.72183 7.10709 6.65991 7.67842 6.42325C8.24975 6.1866 8.73808 5.78584 9.08164 5.27166C9.42521 4.75747 9.60859 4.15295 9.60859 3.53455C9.60859 2.70529 9.27917 1.91 8.6928 1.32363C8.10642 0.737255 7.31113 0.407835 6.48188 0.407835ZM7.50826 4.60579C7.29054 4.84143 6.98979 4.98327 6.66948 5.00138V5.20802C6.67166 5.23317 6.66859 5.2585 6.66046 5.28241C6.65232 5.30631 6.63931 5.32826 6.62225 5.34687C6.60518 5.36547 6.58444 5.38033 6.56133 5.39049C6.53821 5.40066 6.51324 5.40591 6.48799 5.40591C6.46275 5.40591 6.43778 5.40066 6.41466 5.39049C6.39155 5.38033 6.37081 5.36547 6.35374 5.34687C6.33668 5.32826 6.32367 5.30631 6.31553 5.28241C6.3074 5.2585 6.30433 5.23317 6.30651 5.20802V5.01226C6.05014 4.99476 5.80509 4.89996 5.60368 4.74037C5.52703 4.67729 5.46134 4.60195 5.40928 4.51742C5.38474 4.47498 5.37122 4.42707 5.36994 4.37807C5.36867 4.32906 5.37968 4.28051 5.40199 4.23686C5.42429 4.1932 5.45717 4.15582 5.49762 4.12813C5.53807 4.10044 5.58482 4.08331 5.63359 4.07832H5.69612C5.74972 4.0724 5.80389 4.08208 5.85212 4.10619C5.90035 4.13031 5.94059 4.16784 5.96801 4.21427C5.99303 4.26085 6.02361 4.30421 6.05909 4.34341C6.12667 4.41893 6.21027 4.47839 6.30379 4.51742V3.64602C6.03604 3.59769 5.78703 3.47577 5.58465 3.29393C5.51032 3.21816 5.45204 3.12818 5.41326 3.02938C5.37449 2.93058 5.35603 2.82498 5.35898 2.71888C5.35731 2.61036 5.37959 2.50281 5.42424 2.40389C5.46888 2.30496 5.53479 2.2171 5.61727 2.14656C5.81084 1.98256 6.05311 1.88699 6.30651 1.87467V1.85156C6.30433 1.82641 6.3074 1.80108 6.31553 1.77717C6.32367 1.75327 6.33668 1.73132 6.35374 1.71271C6.37081 1.69411 6.39155 1.67925 6.41466 1.66909C6.43778 1.65892 6.46275 1.65367 6.48799 1.65367C6.51324 1.65367 6.53821 1.65892 6.56133 1.66909C6.58444 1.67925 6.60518 1.69411 6.62225 1.71271C6.63931 1.73132 6.65232 1.75327 6.66046 1.77717C6.66859 1.80108 6.67166 1.82641 6.66948 1.85156V1.87467C6.89783 1.888 7.11763 1.96629 7.30298 2.10034C7.31628 2.11048 7.32899 2.12137 7.34104 2.13296C7.37192 2.16041 7.3966 2.19413 7.41344 2.23186C7.43028 2.26959 7.43888 2.31048 7.43868 2.3518C7.43848 2.39311 7.42949 2.43391 7.41229 2.47148C7.39509 2.50905 7.37009 2.54253 7.33895 2.56968C7.30781 2.59683 7.27124 2.61704 7.23168 2.62896C7.19211 2.64087 7.15047 2.64423 7.10951 2.63879C7.06855 2.63336 7.02922 2.61926 6.99413 2.59745C6.95905 2.57563 6.92901 2.54658 6.90602 2.51225C6.84928 2.42783 6.76606 2.3647 6.66948 2.3328V3.14847C7.07731 3.23819 7.3492 3.3551 7.48514 3.49784C7.55539 3.56718 7.61088 3.65002 7.64826 3.74137C7.68564 3.83272 7.70414 3.93069 7.70265 4.02938C7.71134 4.23894 7.64208 4.44429 7.50826 4.60579Z" fill="#7096FF"/>
</svg>
