<svg width="16" height="15" viewBox="0 0 16 15" fill="none" xmlns="http://www.w3.org/2000/svg">
<path fill-rule="evenodd" clip-rule="evenodd" d="M15.2644 0.509241C15.2018 0.207081 14.8997 0.085957 14.6014 0.144566L11.7648 1.22948C11.6794 1.25614 11.6019 1.30333 11.539 1.3669C11.4761 1.43048 11.4297 1.50851 11.404 1.59415L9.35791 8.27423H2.54368C2.30404 7.554 1.098 3.21696 1.098 3.21696C0.978182 2.92001 0.676023 2.73507 0.436378 2.85228C0.292232 2.88435 0.1667 2.97231 0.0873402 3.09684C0.00798027 3.22138 -0.0187224 3.37231 0.013094 3.51651L1.5838 8.93195C1.61565 9.0518 1.68585 9.15793 1.78369 9.23413C1.88152 9.31032 2.00161 9.3524 2.12561 9.35393H8.99845C8.8682 9.83973 8.69498 10.5027 8.57125 10.8621H2.05919C1.98811 10.8614 1.9176 10.8748 1.85174 10.9016C1.78588 10.9283 1.72596 10.9678 1.67546 11.0178C1.62496 11.0678 1.58487 11.1274 1.55752 11.193C1.53016 11.2586 1.51608 11.3289 1.51608 11.4C1.51608 11.7074 1.75572 11.8845 2.05919 11.8845H8.99845C9.11354 11.885 9.22613 11.851 9.32175 11.7869C9.41738 11.7229 9.49165 11.6317 9.53504 11.5251L10.2605 8.93195C10.3816 8.6337 12.2441 2.61264 12.3743 2.19456C12.7924 2.01744 14.9622 1.17217 14.9622 1.17217C15.0705 1.14899 15.1668 1.08774 15.2337 0.999546C15.3006 0.911354 15.3337 0.802077 15.3269 0.691579C15.3314 0.658418 15.3281 0.624664 15.3172 0.593008C15.3064 0.561352 15.2883 0.532668 15.2644 0.509241ZM2.36135 12.3026C2.04226 12.3053 1.73717 12.434 1.51252 12.6606C1.28786 12.8873 1.16181 13.1934 1.16182 13.5125C1.17216 13.8279 1.3017 14.1276 1.52431 14.3512C1.74693 14.5747 2.04605 14.7056 2.36135 14.7173C2.67722 14.7064 2.97735 14.5767 3.20168 14.354C3.42601 14.1314 3.55802 13.8322 3.57129 13.5164C3.56924 13.1962 3.44111 12.8896 3.21464 12.6632C2.98817 12.4367 2.68161 12.3086 2.36135 12.3065V12.3026ZM8.87341 12.3026C8.55351 12.3047 8.24736 12.4329 8.02151 12.6595C7.79567 12.8861 7.6684 13.1926 7.66738 13.5125C7.67872 13.8287 7.80946 14.1287 8.03326 14.3523C8.25706 14.5759 8.55728 14.7063 8.87341 14.7173C9.18867 14.706 9.48802 14.576 9.71145 14.3533C9.93487 14.1306 10.0659 13.8317 10.0781 13.5164C10.0771 13.1968 9.95004 12.8904 9.72447 12.6639C9.49891 12.4373 9.19309 12.3089 8.87341 12.3065V12.3026Z" fill="#7096FF"/>
<path fill-rule="evenodd" clip-rule="evenodd" d="M6.47045 7.24272L8.75098 4.4803C8.79153 4.43106 8.81722 4.37129 8.82506 4.30798C8.83289 4.24467 8.82255 4.18044 8.79523 4.1228C8.76791 4.06515 8.72474 4.01647 8.67078 3.98246C8.61682 3.94844 8.55429 3.93048 8.4905 3.93068H4.45301C4.38922 3.93048 4.32669 3.94844 4.27273 3.98246C4.21877 4.01647 4.1756 4.06515 4.14828 4.1228C4.12096 4.18044 4.11061 4.24467 4.11845 4.30798C4.12629 4.37129 4.15198 4.43106 4.19253 4.4803L6.47045 7.24272Z" fill="#7096FF"/>
<path fill-rule="evenodd" clip-rule="evenodd" d="M7.77288 4.02706C7.77288 4.02706 8.42409 -1.90735e-06 0.349121 -1.90735e-06C0.349121 -1.90735e-06 5.03781 1.34279 5.03781 4.02706" fill="#7096FF"/>
</svg>
